<svg width="640" height="480" viewBox="0 0 640 480" fill="none" xmlns="http://www.w3.org/2000/svg">
  <defs>
    <linearGradient id="monitor-bg" x1="64" y1="56" x2="576" y2="424" gradientUnits="userSpaceOnUse">
      <stop stop-color="#F9FEFF"/>
      <stop offset="1" stop-color="#EAF9FC"/>
    </linearGradient>
  </defs>
  <rect width="640" height="480" rx="32" fill="url(#monitor-bg)"/>
  <rect x="56" y="58" width="528" height="364" rx="28" fill="white" stroke="#D6EDF1" stroke-width="2"/>
  <rect x="88" y="90" width="464" height="56" rx="20" fill="#F3FAFC"/>
  <rect x="118" y="108" width="112" height="20" rx="10" fill="#DDF5F9"/>
  <rect x="88" y="174" width="212" height="198" rx="26" fill="#0F3440"/>
  <rect x="330" y="174" width="222" height="88" rx="24" fill="#F7FCFD" stroke="#D6EDF1" stroke-width="2"/>
  <rect x="330" y="284" width="222" height="88" rx="24" fill="#EAF9FC"/>
  <circle cx="164" cy="248" r="62" stroke="#8DE2EE" stroke-width="2" stroke-dasharray="7 10"/>
  <circle cx="164" cy="248" r="26" fill="#00B9D1" fill-opacity="0.18" stroke="#00B9D1" stroke-width="3"/>
  <path d="M126 300L146 280L162 294L202 252" stroke="#8DE2EE" stroke-width="5" stroke-linecap="round" stroke-linejoin="round"/>
  <rect x="362" y="202" width="84" height="14" rx="7" fill="#DDF5F9"/>
  <rect x="362" y="228" width="156" height="12" rx="6" fill="#EEF8FA"/>
  <rect x="362" y="312" width="108" height="14" rx="7" fill="#B8EBF2"/>
  <rect x="362" y="338" width="126" height="12" rx="6" fill="#DDF5F9"/>
  <circle cx="510" cy="320" r="16" fill="#00B9D1"/>
</svg>
