<?xml version="1.0" encoding="UTF-8"?> <svg xmlns="http://www.w3.org/2000/svg" viewBox="0 0 414.41 60.2"><defs><style>.d,.e{fill:#bd224a;}.e,.f{fill-rule:evenodd;}</style></defs><g id="a"></g><g id="b"><g id="c"><g><g><path class="d" d="M109.5,38.6c-1,5.1-2.9,8.9-5.8,11.4-2.9,2.6-6.8,3.8-11.6,3.8s-8.2-1.3-10.1-3.8c-2-2.6-2.5-6.4-1.5-11.4l3.9-20.3c1-5,2.9-8.8,5.8-11.4,2.9-2.5,6.8-3.8,11.6-3.8s8.2,1.3,10.2,3.8c1.9,2.5,2.4,6.3,1.4,11.4l-.7,3.8h-11.1l1.1-5.6c.3-1.6,.3-2.8-.2-3.5-.4-.7-1.2-1.1-2.4-1.1-1.1,0-2.1,.4-2.7,1.1-.7,.7-1.2,1.9-1.5,3.5l-4.5,23.9c-.3,1.6-.3,2.8,.1,3.5s1.2,1.1,2.4,1.1,2.1-.4,2.8-1.1c.7-.7,1.2-1.9,1.5-3.5l1.3-6.8h11.1l-1.1,5Z"></path><path d="M126.3,50.3c-1.5,1.2-2.9,2.1-4.2,2.7-1.3,.6-2.7,.9-4.1,.9-2.5,0-4.2-.9-5.3-2.6-1.1-1.7-1.4-4-.8-6.9l.6-3.1c.5-2.6,1.5-4.8,3-6.5,1.5-1.8,3.6-3.2,6.3-4.4,.5-.2,1.2-.5,2.1-.9,4.3-1.8,6.7-3.7,7-5.6l.3-1.4c.1-.7,0-1.3-.3-1.8-.4-.5-.9-.7-1.6-.7-.8,0-1.4,.3-2,1s-1,1.6-1.2,2.8l-.5,2.5h-9.6l.5-2.5c.7-3.4,2.2-6.1,4.8-8,2.5-1.9,5.7-2.8,9.6-2.8,4.3,0,7.3,.9,8.9,2.7,1.6,1.8,2,4.8,1.2,9l-5.4,28.5h-9.6l.3-2.9Zm2.8-16.9c-2.2,1.1-3.7,2.1-4.4,2.9-.8,.8-1.3,2-1.6,3.4l-.8,4c-.3,1.5-.3,2.5-.1,2.9,.2,.5,.6,.7,1.3,.7,.9,0,1.7-.4,2.4-1.3,.7-.9,1.1-2.1,1.5-3.6l1.7-9Z"></path><path d="M147.6,13.7h9.8l-.8,4.4c1.1-1.6,2.5-2.9,4.1-3.8s3.2-1.4,4.9-1.4c2.5,0,4.2,.8,5.1,2.4,.9,1.6,1.1,4,.5,7.3l-4.1,21.5c-.6,3.2-1.7,5.7-3.2,7.3s-3.6,2.4-6,2.4c-1.6,0-2.9-.4-4-1.2s-2-1.9-2.6-3.4l-2.1,11h-10.3l8.7-46.5Zm7.7,13.3l-2.4,12.9c-.4,2.4-.6,4-.4,4.9,.2,.9,.7,1.3,1.6,1.3,.7,0,1.3-.3,1.7-.8s.8-1.3,1-2.3l3.7-19.2c.2-1,.2-1.8-.1-2.3s-.7-.7-1.4-.7c-.9,0-1.6,.4-2.1,1.3-.6,.9-1.1,2.5-1.6,4.9Z"></path><path d="M169.5,53.1l7.5-39.4h10.3l-7.5,39.4h-10.3Zm8-41.6l1.5-7.6h10.3l-1.5,7.6h-10.3Z"></path><path d="M199.2,45.7l-1.5,7.7-2.1,.3c-.7,.1-1.4,.1-2.1,.1-3.4,0-5.5-.7-6.5-2.2-1-1.4-1-4.6-.1-9.4l3.9-20.4h-2.6l1.4-7.5h2.6l1.6-8.3h10.1l-1.6,8.3h2.8l-1.4,7.5h-3l-4.1,21.8c-.1,.7,0,1.2,.4,1.5,.4,.4,1,.5,1.9,.5h.3v.1Z"></path><path d="M215.8,50.3c-1.5,1.2-2.9,2.1-4.2,2.7-1.3,.6-2.7,.9-4.1,.9-2.5,0-4.2-.9-5.3-2.6-1.1-1.7-1.4-4-.8-6.9l.6-3.1c.5-2.6,1.5-4.8,3-6.5,1.5-1.8,3.6-3.2,6.3-4.4,.5-.2,1.2-.5,2.1-.9,4.3-1.8,6.7-3.7,7-5.6l.3-1.4c.1-.7,0-1.3-.3-1.8-.4-.5-.9-.7-1.6-.7-.8,0-1.4,.3-2,1s-1,1.6-1.2,2.8l-.5,2.5h-9.6l.5-2.5c.7-3.4,2.2-6.1,4.8-8,2.5-1.9,5.7-2.8,9.6-2.8,4.3,0,7.3,.9,8.9,2.7,1.6,1.8,2,4.8,1.2,9l-5.4,28.5h-9.6l.3-2.9Zm2.7-16.8c-2.2,1.1-3.7,2.1-4.4,2.9-.8,.8-1.3,2-1.6,3.4l-.8,4c-.3,1.5-.3,2.5-.1,2.9,.2,.5,.6,.7,1.3,.7,.9,0,1.7-.4,2.4-1.3,.7-.9,1.1-2.1,1.5-3.6l1.7-9Zm-2.4-22.8l7.5-8.6h8.8l-12,8.6h-4.3Z"></path><path d="M229.5,53.1l7.5-39.4h9.7l-.9,4.7c1.2-1.7,2.6-3.1,4.2-4s3.2-1.4,4.9-1.4c2.5,0,4.2,.8,5.1,2.4s1.1,4,.5,7.3l-5.8,30.5h-10.3l5.2-27.4c.2-1,.2-1.8-.1-2.3-.3-.5-.7-.8-1.5-.8-.9,0-1.6,.4-2.1,1.1-.5,.7-1,1.9-1.3,3.6l-4.9,25.8-10.2-.1Z"></path><path class="d" d="M290.8,38.6c-1,5.1-2.9,8.9-5.8,11.4-2.9,2.6-6.8,3.8-11.6,3.8s-8.2-1.3-10.1-3.8c-2-2.6-2.5-6.4-1.5-11.4l3.9-20.2c1-5,2.9-8.8,5.8-11.4,2.9-2.5,6.8-3.8,11.6-3.8s8.2,1.3,10.2,3.8c1.9,2.5,2.4,6.3,1.4,11.4l-.7,3.8h-11.1l1.1-5.6c.3-1.6,.3-2.8-.2-3.5-.4-.7-1.2-1.1-2.4-1.1-1.1,0-2.1,.4-2.7,1.1-.7,.7-1.2,1.9-1.5,3.5l-4.5,23.9c-.3,1.6-.3,2.8,.1,3.5s1.2,1.1,2.4,1.1,2.1-.4,2.8-1.1c.7-.7,1.2-1.9,1.5-3.5l1.3-6.8h11.1l-1.1,4.9Z"></path><path d="M297.2,25.3c.8-4.1,2.4-7.2,4.9-9.2s5.9-3,10.1-3,7.3,1,9,3.1c1.7,2,2.2,5.1,1.4,9.2l-3.1,16.3c-.8,4.1-2.4,7.2-4.9,9.2s-5.9,3.1-10.2,3.1-7.3-1-9-3.1c-1.7-2-2.2-5.1-1.4-9.3l3.2-16.3Zm11.6,17.8l3.7-19.3c.2-1.2,.2-2-.1-2.5-.3-.5-.8-.8-1.6-.8s-1.4,.3-1.9,.8-.8,1.3-1,2.5l-3.7,19.3c-.2,1.2-.2,2,.1,2.5,.3,.5,.8,.8,1.6,.8s1.5-.2,1.9-.8c.4-.5,.8-1.4,1-2.5Z"></path><path d="M321.4,53.2l7.5-39.4h9.7l-1.3,6.7c1.3-2.4,2.7-4.2,4.2-5.5s3-1.9,4.5-2l-2.4,12.8c-2.5,0-4.4,.6-5.6,1.7-1.2,1.1-2.1,3.1-2.6,5.9l-3.8,19.8h-10.2Z"></path><path d="M356,45.8l-1.5,7.7-2.1,.3c-.7,.1-1.4,.1-2.1,.1-3.4,0-5.5-.7-6.5-2.2-1-1.4-1-4.6-.1-9.4l3.9-20.4h-2.6l1.4-7.5h2.6l1.6-8.3h10.1l-1.6,8.3h2.8l-1.4,7.5h-3l-4.1,21.8c-.1,.7,0,1.2,.4,1.5,.4,.4,1,.5,1.9,.5h.3v.1Z"></path><path d="M369.2,43.1c-.2,1.2-.2,2,.1,2.5,.3,.5,.8,.8,1.6,.8s1.5-.2,1.9-.8c.5-.5,.8-1.3,1-2.5l.9-4.6h10.4l-.6,3.1c-.8,4.1-2.4,7.2-4.9,9.2s-5.9,3.1-10.2,3.1-7.3-1-9-3.1c-1.7-2-2.2-5.1-1.4-9.3l3.1-16.3c.8-4.1,2.4-7.2,4.9-9.2s5.9-3,10.1-3,7.3,1,9,3.1c1.7,2,2.2,5.1,1.4,9.2l-1.9,9.9h-15.1l-1.3,7.9Zm3.7-19.3l-.8,4.2h4.6l.8-4.2c.2-1.2,.2-2-.1-2.5-.3-.5-.8-.8-1.6-.8s-1.4,.3-1.9,.8c-.5,.6-.8,1.4-1,2.5Zm0-13l7.5-8.6h8.8l-12,8.6h-4.3Z"></path><path d="M387.5,40.4h9.3l-.4,2.3c-.2,1.2-.2,2.2,.1,2.8,.3,.7,.8,1,1.5,1s1.3-.3,1.8-.8c.5-.6,.9-1.3,1.1-2.3,.3-1.3-.6-2.9-2.5-4.8l-.3-.3c-.4-.3-.9-.8-1.5-1.5-4.5-4.4-6.4-8.6-5.7-12.6,.7-3.4,2.3-6.2,4.8-8.2,2.6-2,5.7-3,9.3-3s6.1,.9,7.7,2.8,2.1,4.5,1.4,7.9l-.3,1.8h-9.3l.3-1.7c.2-1.2,.2-2.1,0-2.7-.2-.6-.7-.8-1.5-.8-.6,0-1.2,.2-1.7,.7s-.8,1.1-1,1.8c-.3,1.4,1,3.4,3.7,6,.9,.8,1.5,1.4,2,1.9,2.3,2.2,3.7,4.2,4.4,5.9,.7,1.7,.8,3.8,.3,6.1-.7,3.5-2.3,6.2-4.9,8.3-2.6,2-5.8,3.1-9.6,3.1-3.6,0-6.2-1-7.9-2.9-1.7-1.9-2.2-4.6-1.5-8l.4-2.8Z"></path></g><g><path class="f" d="M63.8,20.6c3.1,3.1,3.1,8.1,0,11.2s-8.2,3.1-11.3,0c-3.1-3.1-3.1-8.1,0-11.2s8.2-3.1,11.3,0Z"></path><path class="f" d="M29.7,51.2l-14.9-14.7c-4.1-4.1-3.8-11,.8-15.5L32,4.7c1-1,2.1-1.7,3.2-2.3-1.8-1.6-4.1-2.4-6.5-2.4h-.1c-3,0-6.1,1.2-8.5,3.6L3.6,19.9c-2.4,2.4-3.6,5.4-3.6,8.4v.1c0,2.6,1,5.1,2.9,7l14.9,14.7c3.2,3.2,8.2,3.7,12.4,1.5-.2-.1-.3-.2-.5-.4Z"></path><path class="e" d="M51.6,32.7c-.6-.5-1-1.2-1.4-1.8l-8.2,8.1c-2.3,2.2-5.8,2.4-7.8,.4l-7.4-7.4c-2.1-2-1.9-5.5,.4-7.8l8.2-8.1c2.3-2.2,5.8-2.4,7.8-.4l6.5,6.5c.4-.9,1-1.8,1.8-2.6,2.7-2.6,6.6-3.3,9.9-2.1L47.7,3.9C43.6-.2,36.6,.2,32,4.7L15.6,21c-4.5,4.5-4.9,11.4-.8,15.5l14.9,14.7c4.1,4.1,11.1,3.7,15.7-.8l15.5-15.4c-3.2,1-6.8,.2-9.3-2.3Z"></path></g></g></g></g></svg> 